#N canvas 630 85 820 685 12;
#X obj 174 122 arduino 5;
#X msg 130 64 open 5;
#X msg 229 61 close 5;
#X msg 258 90 devices;
#X obj 174 155 route analog;
#X obj 174 191 route 0;
#X obj 246 311 osc~;
#X obj 247 390 dac~;
#X obj 420 289 vsl 19 162 0 1 0 0 empty empty empty 0 -9 0 12 #fcfcfc #000000 #000000 0 1;
#X obj 247 347 *~;
#X floatatom 299 310 5 0 0 0 - - - 0;
#X floatatom 179 356 5 0 0 0 - - - 0;
#X obj 174 547 mapping/smooth;
#X obj 359 521 hsl 162 19 0.1 0.5 0 0 empty empty empty -2 -10 0 12 #fcfcfc #000000 #000000 0 1;
#X obj 174 230 cyclone/scale 0 0.9 20 100;
#X connect 0 0 4 0;
#X connect 1 0 0 0;
#X connect 2 0 0 0;
#X connect 3 0 0 0;
#X connect 4 0 5 0;
#X connect 5 0 14 0;
#X connect 6 0 9 0;
#X connect 8 0 9 1;
#X connect 8 0 10 0;
#X connect 9 0 7 0;
#X connect 9 0 7 1;
#X connect 12 0 6 0;
#X connect 13 0 12 1;
#X connect 14 0 6 0;
#X connect 14 0 11 0;
#X connect 14 0 12 0;
